<svg width="185" height="40" viewBox="0 0 185 40" fill="none" xmlns="http://www.w3.org/2000/svg">
<g clip-path="url(#clip0_520_472)">
<path d="M24.4053 38.5406H7.595L5.00879 17.311H26.9915L24.4053 38.5406Z" fill="#4F80C0" stroke="#002D63" stroke-linecap="round" stroke-linejoin="round"/>
<path d="M31 11.7783H1V17.2594H31V11.7783Z" stroke="#002D63" stroke-linecap="round" stroke-linejoin="round"/>
<path d="M19.75 11.7785L22.3362 2H28.6724" stroke="#002D63" stroke-linejoin="round"/>
<path d="M13.2906 30.12C12.8026 30.12 12.3426 30.084 11.9106 30.012C11.4866 29.948 11.1506 29.864 10.9026 29.76V28.14C11.1826 28.268 11.5146 28.368 11.8986 28.44C12.2906 28.512 12.6226 28.548 12.8946 28.548C13.1826 28.548 13.3986 28.54 13.5426 28.524C13.6946 28.508 13.7706 28.44 13.7706 28.32C13.7706 28.184 13.6386 28.08 13.3746 28.008C13.1106 27.936 12.7786 27.832 12.3786 27.696C11.8586 27.512 11.4706 27.296 11.2146 27.048C10.9586 26.8 10.8306 26.44 10.8306 25.968C10.8306 25.4 11.0546 24.964 11.5026 24.66C11.9506 24.348 12.6546 24.192 13.6146 24.192C13.9826 24.192 14.3626 24.22 14.7546 24.276C15.1466 24.332 15.4546 24.396 15.6786 24.468V26.052C15.4386 25.948 15.1746 25.872 14.8866 25.824C14.6066 25.776 14.3506 25.752 14.1186 25.752C13.8626 25.752 13.6346 25.764 13.4346 25.788C13.2346 25.812 13.1346 25.88 13.1346 25.992C13.1346 26.12 13.2466 26.212 13.4706 26.268C13.7026 26.324 14.0106 26.412 14.3946 26.532C14.8266 26.66 15.1626 26.8 15.4026 26.952C15.6506 27.104 15.8226 27.288 15.9186 27.504C16.0226 27.72 16.0746 27.988 16.0746 28.308C16.0746 28.884 15.8386 29.332 15.3666 29.652C14.9026 29.964 14.2106 30.12 13.2906 30.12ZM19.8505 30.12C18.8185 30.12 18.0025 29.876 17.4025 29.388C16.8025 28.892 16.5025 28.148 16.5025 27.156C16.5025 26.484 16.6425 25.928 16.9225 25.488C17.2025 25.048 17.5945 24.724 18.0985 24.516C18.6025 24.3 19.1905 24.192 19.8625 24.192C20.2865 24.192 20.6665 24.224 21.0025 24.288C21.3385 24.344 21.6585 24.444 21.9625 24.588V26.172C21.4905 25.948 20.9545 25.836 20.3545 25.836C19.8425 25.836 19.4545 25.932 19.1905 26.124C18.9345 26.316 18.8065 26.66 18.8065 27.156C18.8065 27.62 18.9305 27.956 19.1785 28.164C19.4265 28.372 19.8185 28.476 20.3545 28.476C20.6425 28.476 20.9225 28.444 21.1945 28.38C21.4665 28.308 21.7265 28.208 21.9745 28.08V29.736C21.6705 29.872 21.3425 29.968 20.9905 30.024C20.6465 30.088 20.2665 30.12 19.8505 30.12Z" fill="white"/>
<path d="M47.632 18.22C46.6787 18.22 45.7767 18.1467 44.926 18C44.0753 17.8387 43.3493 17.6187 42.748 17.34V13.93C43.408 14.238 44.1413 14.4873 44.948 14.678C45.7547 14.8687 46.51 14.964 47.214 14.964C47.9473 14.964 48.4973 14.9053 48.864 14.788C49.2453 14.656 49.436 14.37 49.436 13.93C49.436 13.622 49.326 13.38 49.106 13.204C48.9007 13.028 48.5707 12.8667 48.116 12.72C47.676 12.5733 47.0967 12.39 46.378 12.17C45.4247 11.862 44.6693 11.5247 44.112 11.158C43.5547 10.7913 43.1513 10.344 42.902 9.816C42.6673 9.288 42.55 8.64267 42.55 7.88C42.55 6.48667 43.0413 5.43067 44.024 4.712C45.0213 3.97867 46.4953 3.612 48.446 3.612C49.2233 3.612 50.0227 3.678 50.844 3.81C51.68 3.942 52.3547 4.08867 52.868 4.25V7.682C52.1787 7.40333 51.5187 7.20533 50.888 7.088C50.2573 6.97067 49.6633 6.912 49.106 6.912C48.4607 6.912 47.9107 6.96333 47.456 7.066C47.0013 7.16867 46.774 7.43267 46.774 7.858C46.774 8.22467 46.9647 8.496 47.346 8.672C47.742 8.83333 48.4387 9.046 49.436 9.31C50.5947 9.618 51.4747 9.992 52.076 10.432C52.692 10.872 53.11 11.3853 53.33 11.972C53.55 12.544 53.66 13.1967 53.66 13.93C53.66 15.2207 53.1613 16.262 52.164 17.054C51.1667 17.8313 49.656 18.22 47.632 18.22ZM50.448 38.22C47.8813 38.22 45.9233 37.5893 44.574 36.328C43.2247 35.0667 42.55 33.2847 42.55 30.982C42.55 28.606 43.21 26.7873 44.53 25.526C45.85 24.25 47.8153 23.612 50.426 23.612C51.306 23.612 52.0907 23.678 52.78 23.81C53.4693 23.942 54.1293 24.1253 54.76 24.36V27.968C53.4987 27.4107 52.1493 27.132 50.712 27.132C49.3773 27.132 48.3873 27.44 47.742 28.056C47.0967 28.6573 46.774 29.6327 46.774 30.982C46.774 32.302 47.1113 33.2553 47.786 33.842C48.4753 34.414 49.4653 34.7 50.756 34.7C51.46 34.7 52.142 34.634 52.802 34.502C53.4767 34.37 54.144 34.1647 54.804 33.886V37.516C54.1733 37.736 53.506 37.9047 52.802 38.022C52.1127 38.154 51.328 38.22 50.448 38.22Z" fill="#002D63"/>
<path d="M63.7931 18.22C62.4731 18.22 61.3071 18.0073 60.2951 17.582C59.2978 17.142 58.5131 16.504 57.9411 15.668C57.3691 14.8173 57.0831 13.776 57.0831 12.544V3.832H61.2191V12.104C61.2191 13.8347 62.0771 14.7 63.7931 14.7C64.6145 14.7 65.2451 14.4873 65.6851 14.062C66.1251 13.6367 66.3451 12.984 66.3451 12.104V3.832H70.4811V12.544C70.4811 13.776 70.1951 14.8173 69.6231 15.668C69.0658 16.504 68.2811 17.142 67.2691 17.582C66.2718 18.0073 65.1131 18.22 63.7931 18.22ZM81.6651 18.22C79.1424 18.22 77.2211 17.604 75.9011 16.372C74.5811 15.1253 73.9211 13.3507 73.9211 11.048C73.9211 8.672 74.6031 6.83867 75.9671 5.548C77.3311 4.25733 79.3258 3.612 81.9511 3.612C82.8311 3.612 83.6231 3.66333 84.3271 3.766C85.0458 3.86867 85.7204 4.02267 86.3511 4.228V7.77C85.7058 7.52067 85.0384 7.352 84.3491 7.264C83.6598 7.176 82.9558 7.132 82.2371 7.132C80.8731 7.132 79.8464 7.44 79.1571 8.056C78.4824 8.672 78.1451 9.66933 78.1451 11.048C78.1451 12.3387 78.4384 13.27 79.0251 13.842C79.6264 14.414 80.5064 14.7 81.6651 14.7C82.0464 14.7 82.4058 14.678 82.7431 14.634C83.0804 14.5753 83.3958 14.502 83.6891 14.414V12.346H80.8731V9.794H87.1431V16.922C86.6004 17.2593 85.8744 17.56 84.9651 17.824C84.0704 18.088 82.9704 18.22 81.6651 18.22ZM90.2512 18L95.6852 3.832H100.063L105.497 18H101.185L99.9972 14.986H95.7292L94.5632 18H90.2512ZM96.2792 12.016H99.4472L97.8632 7.858L96.2792 12.016ZM109.041 18V3.832H116.411C117.569 3.832 118.515 4.04467 119.249 4.47C119.997 4.89533 120.554 5.48933 120.921 6.252C121.287 7 121.471 7.87267 121.471 8.87C121.471 9.82333 121.229 10.6667 120.745 11.4C120.275 12.1187 119.645 12.6687 118.853 13.05C119.014 13.182 119.153 13.3433 119.271 13.534C119.388 13.71 119.52 13.9593 119.667 14.282L121.295 18H116.983L115.487 14.59C115.369 14.326 115.223 14.1427 115.047 14.04C114.885 13.9227 114.651 13.864 114.343 13.864H113.177V18H109.041ZM113.177 10.696H115.355C115.956 10.696 116.418 10.542 116.741 10.234C117.078 9.91133 117.247 9.45667 117.247 8.87C117.247 7.62333 116.66 7 115.487 7H113.177V10.696ZM58.3533 38V23.832H62.4893V29.112H67.3733V23.832H71.5093V38H67.3733V32.72H62.4893V38H58.3533ZM75.0598 38L80.4938 23.832H84.8718L90.3058 38H85.9938L84.8058 34.986H80.5378L79.3718 38H75.0598ZM81.0878 32.016H84.2558L82.6718 27.858L81.0878 32.016ZM93.8494 38V23.832H97.9854V34.832H104.365V38H93.8494ZM107.472 38V23.832H111.608V34.832H117.988V38H107.472ZM121.095 38V23.832H131.831V27H125.231V29.31H131.017V32.522H125.231V34.832H131.831V38H121.095ZM135.148 38V23.832H138.668L144.014 31.334V23.832H148.15V38H144.608L139.284 30.52V38H135.148ZM159.427 38.22C156.904 38.22 154.983 37.604 153.663 36.372C152.343 35.1253 151.683 33.3507 151.683 31.048C151.683 28.672 152.365 26.8387 153.729 25.548C155.093 24.2573 157.087 23.612 159.713 23.612C160.593 23.612 161.385 23.6633 162.089 23.766C162.807 23.8687 163.482 24.0227 164.113 24.228V27.77C163.467 27.5207 162.8 27.352 162.111 27.264C161.421 27.176 160.717 27.132 159.999 27.132C158.635 27.132 157.608 27.44 156.919 28.056C156.244 28.672 155.907 29.6693 155.907 31.048C155.907 32.3387 156.2 33.27 156.787 33.842C157.388 34.414 158.268 34.7 159.427 34.7C159.808 34.7 160.167 34.678 160.505 34.634C160.842 34.5753 161.157 34.502 161.451 34.414V32.346H158.635V29.794H164.905V36.922C164.362 37.2593 163.636 37.56 162.727 37.824C161.832 38.088 160.732 38.22 159.427 38.22ZM168.453 38V23.832H179.189V27H172.589V29.31H178.375V32.522H172.589V34.832H179.189V38H168.453Z" fill="#4F80C0"/>
</g>
<defs>
<clipPath id="clip0_520_472">
<rect width="185" height="40" fill="white"/>
</clipPath>
</defs>
</svg>
