<svg width="45" height="61" viewBox="0 0 45 61" fill="none" xmlns="http://www.w3.org/2000/svg">
<path d="M12.7661 59.9375H32.063C32.8001 59.9648 33.5352 59.8432 34.2242 59.5798C34.9132 59.3165 35.5421 58.9168 36.0731 58.4048C36.6041 57.8928 37.0262 57.2789 37.3145 56.5999C37.6027 55.9209 37.751 55.1907 37.7505 54.4531L38.7656 28.4531L6.26611 28.2501L7.07866 54.4531C7.1313 55.926 7.75364 57.3211 8.8146 58.3442C9.87556 59.3672 11.2923 59.9385 12.7661 59.9375Z" fill="white"/>
<path d="M6.5 36H38" stroke="#DDDDDD" stroke-width="2" stroke-linecap="round" stroke-linejoin="round"/>
<path d="M32.0626 59.9375H12.7657C11.2918 59.9384 9.87514 59.3672 8.81417 58.3441C7.75321 57.3211 7.13088 55.926 7.07824 54.4531L6.26569 28.25C6.23885 26.116 6.6327 23.9975 7.42463 22.0157C8.21657 20.0339 9.39113 18.2275 10.8813 16.6997C12.3714 15.1718 14.1479 13.9524 16.1093 13.1112C18.0707 12.27 20.1786 11.8234 22.3126 11.7968C24.4371 11.7967 26.5405 12.2184 28.5007 13.0375C30.461 13.8566 32.2392 15.0568 33.7319 16.5685C35.2247 18.0802 36.4024 19.8732 37.1968 21.8436C37.9911 23.814 38.3864 25.9225 38.3595 28.0468L37.7501 54.4531C37.7506 55.1907 37.6023 55.9209 37.314 56.5999C37.0258 57.2789 36.6036 57.8927 36.0726 58.4048C35.5417 58.9168 34.9128 59.3165 34.2238 59.5798C33.5347 59.8432 32.7997 59.9648 32.0626 59.9375Z" stroke="black" stroke-width="2" stroke-miterlimit="10"/>
<path d="M1.1875 28.6562H43.4376" stroke="black" stroke-width="2" stroke-linecap="round" stroke-linejoin="round"/>
<path d="M22.3125 45.1094L20.8906 1.03125H9.3125" stroke="black" stroke-width="2" stroke-linecap="round" stroke-linejoin="round"/>
<path d="M13.63 55V48.56H14.75L16.79 52.73L18.82 48.56H19.94V55H18.86V50.33L17.12 53.89H16.46L14.71 50.33V55H13.63ZM21.3445 49.27V48.37H22.5345V49.27H21.3445ZM21.4345 55V51.09H20.7145L20.8145 50.26H22.5245V55H21.4345ZM24.976 55.1C24.5893 55.1 24.296 55.0067 24.096 54.82C23.896 54.6267 23.796 54.31 23.796 53.87V48.26H24.886V53.77C24.886 53.9567 24.9193 54.0833 24.986 54.15C25.0527 54.2167 25.1527 54.25 25.286 54.25C25.446 54.25 25.5993 54.23 25.746 54.19V54.98C25.6193 55.0267 25.496 55.0567 25.376 55.07C25.2627 55.09 25.1293 55.1 24.976 55.1ZM26.5988 55V48.26H27.6888V52.16L29.6788 50.26H30.9288L28.9988 52.17L31.0388 55H29.8888L28.3188 52.75L27.6888 53.35V55H26.5988Z" fill="#A6A6A6"/>
</svg>
