<svg width="48" height="60" viewBox="0 0 48 60" fill="none" xmlns="http://www.w3.org/2000/svg">
<path d="M31.9333 58H2.06667L1 17H33L31.9333 58Z" fill="url(#paint0_linear_346_581)"/>
<path d="M23.9063 16.7031C23.9058 13.775 25.0549 10.9638 27.1063 8.87437C29.1577 6.78498 31.9474 5.58449 34.875 5.53125C37.838 5.53125 40.6796 6.70829 42.7747 8.80342C44.8699 10.8986 46.0469 13.7402 46.0469 16.7031C45.9936 19.6307 44.7931 22.4204 42.7037 24.4718C40.6144 26.5232 37.8031 27.6724 34.875 27.6719H33.6563" fill="url(#paint1_linear_346_581)" stroke="black" stroke-width="2" stroke-linecap="round" stroke-linejoin="round"/>
<path d="M31.625 58.75H3.1875L1.15625 16.7031H33.6562L31.625 58.75Z" stroke="black" stroke-width="2" stroke-linecap="round" stroke-linejoin="round"/>
<path d="M19.4375 47.9844L12.125 1.0625H1.15625" stroke="black" stroke-width="2" stroke-linecap="round" stroke-linejoin="round"/>
<defs>
<linearGradient id="paint0_linear_346_581" x1="17" y1="15.975" x2="29.2435" y2="56.6889" gradientUnits="userSpaceOnUse">
<stop stop-color="white"/>
<stop offset="1" stop-color="#FF002E"/>
</linearGradient>
<linearGradient id="paint1_linear_346_581" x1="28.5777" y1="26.4531" x2="43.8121" y2="10.2031" gradientUnits="userSpaceOnUse">
<stop offset="0.167934" stop-color="#FFD15C" stop-opacity="0"/>
<stop offset="0.899346" stop-color="#B4F300"/>
</linearGradient>
</defs>
</svg>
