<svg width="45" height="62" viewBox="0 0 45 65" fill="none" xmlns="http://www.w3.org/2000/svg">
<path d="M12.7661 60.4375H32.063C32.8001 60.4648 33.5352 60.3432 34.2242 60.0798C34.9132 59.8165 35.5421 59.4168 36.0731 58.9048C36.6041 58.3928 37.0262 57.7789 37.3145 57.0999C37.6027 56.4209 37.751 55.6907 37.7505 54.9531L38.7656 28.9531L6.26611 28.7501L7.07866 54.9531C7.1313 56.426 7.75364 57.8211 8.8146 58.8442C9.87556 59.8672 11.2923 60.4385 12.7661 60.4375Z" fill="url(#paint0_linear_346_506)"/>
<path d="M32.0626 60.4375H12.7657C11.2918 60.4384 9.87514 59.8672 8.81417 58.8441C7.75321 57.8211 7.13088 56.426 7.07824 54.9531L6.26569 28.75C6.23885 26.616 6.6327 24.4975 7.42463 22.5157C8.21657 20.5339 9.39113 18.7275 10.8813 17.1997C12.3714 15.6718 14.1479 14.4524 16.1093 13.6112C18.0707 12.77 20.1786 12.3234 22.3126 12.2968C24.4371 12.2967 26.5405 12.7184 28.5007 13.5375C30.461 14.3566 32.2392 15.5568 33.7319 17.0685C35.2247 18.5802 36.4024 20.3732 37.1968 22.3436C37.9911 24.314 38.3864 26.4225 38.3595 28.5468L37.7501 54.9531C37.7506 55.6907 37.6023 56.4209 37.314 57.0999C37.0258 57.7789 36.6036 58.3927 36.0726 58.9048C35.5417 59.4168 34.9128 59.8165 34.2238 60.0798C33.5347 60.3432 32.7997 60.4648 32.0626 60.4375Z" stroke="black" stroke-width="2" stroke-miterlimit="10"/>
<path d="M1.1875 29.1562H43.4376" stroke="black" stroke-width="2" stroke-linecap="round" stroke-linejoin="round"/>
<path d="M22.3125 45.6094L20.8906 1.53125H9.3125" stroke="black" stroke-width="2" stroke-linecap="round" stroke-linejoin="round"/>
<defs>
<linearGradient id="paint0_linear_346_506" x1="6.37913" y1="33.6788" x2="38.1274" y2="61.201" gradientUnits="userSpaceOnUse">
<stop stop-color="#E6A046"/>
<stop offset="1" stop-color="#5A272F"/>
</linearGradient>
</defs>
</svg>
