<svg width="53" height="56" viewBox="0 0 53 56" fill="none" xmlns="http://www.w3.org/2000/svg">
<path d="M1.125 17.9531H40.9375V43.9531C40.9375 46.7006 39.846 49.3355 37.9033 51.2783C35.9605 53.2211 33.3256 54.3125 30.5781 54.3125H11.6875C8.94005 54.3125 6.30506 53.2211 4.3623 51.2783C2.41955 49.3355 1.32814 46.7006 1.32814 43.9531V17.9531H1.125Z" fill="#05972E" stroke="black" stroke-width="2" stroke-linecap="round" stroke-linejoin="round"/>
<path d="M7.625 11.0469V3.53122" stroke="black" stroke-width="2" stroke-linecap="round" stroke-linejoin="round"/>
<path d="M32.4062 11.0469V3.32808" stroke="black" stroke-width="2" stroke-linecap="round" stroke-linejoin="round"/>
<path d="M20.0156 8.20312V1.09375" stroke="black" stroke-width="2" stroke-linecap="round" stroke-linejoin="round"/>
<path d="M41.75 25.4688H51.9063V34.3496C51.9063 36.304 51.088 38.1784 49.6315 39.5604C48.175 40.9424 46.1996 41.7187 44.1397 41.7187H41.75V25.6577V25.4688Z" stroke="black" stroke-width="2" stroke-linecap="round" stroke-linejoin="round"/>
</svg>
