<svg width="50" height="50" viewBox="0 0 50 50" fill="none" xmlns="http://www.w3.org/2000/svg">
<g clip-path="url(#clip0_1_3)">
<path d="M50 25.0001C50 32.9289 46.3091 39.9956 40.5513 44.5754C36.2829 47.9717 30.8794 50 25.0001 50C19.1208 50 13.7173 47.9717 9.44868 44.5754C3.69117 39.9956 0 32.9289 0 25.0001C0 11.1931 11.1934 -3.05176e-05 25.0001 -3.05176e-05C38.8068 -3.05176e-05 50 11.1931 50 25.0001Z" fill="#EBF4FF"/>
<path d="M24.9999 32.9694C30.366 32.9694 34.716 28.6193 34.716 23.2533C34.716 17.8872 30.366 13.5371 24.9999 13.5371C19.6338 13.5371 15.2838 17.8872 15.2838 23.2533C15.2838 28.6193 19.6338 32.9694 24.9999 32.9694Z" fill="#4F80C0"/>
<path d="M40.5513 44.5755C36.2829 47.9717 30.8794 50 25.0001 50C19.1208 50 13.7173 47.9717 9.44867 44.5755C12.5744 39.9836 18.3691 36.8997 25.0001 36.8997C31.6312 36.8997 37.4263 39.9828 40.5513 44.5755Z" fill="#4F80C0"/>
</g>
<defs>
<clipPath id="clip0_1_3">
<rect width="50" height="50" fill="white"/>
</clipPath>
</defs>
</svg>
