<svg width="32" height="38" viewBox="0 0 32 38" fill="none" xmlns="http://www.w3.org/2000/svg">
<path d="M24.4053 37.389H7.595L5.00879 16.2476H26.9915L24.4053 37.389Z" fill="#4F80C0" stroke="#002D63" stroke-linecap="round" stroke-linejoin="round"/>
<path d="M31 10.7378H1V16.1961H31V10.7378Z" stroke="#002D63" stroke-linecap="round" stroke-linejoin="round"/>
<path d="M19.75 10.7379L22.3362 1H28.6724" stroke="#002D63" stroke-linejoin="round"/>
<path d="M12.8889 29.12C12.4009 29.12 11.9409 29.084 11.5089 29.012C11.0849 28.948 10.7489 28.864 10.5009 28.76V27.14C10.7809 27.268 11.1129 27.368 11.4969 27.44C11.8889 27.512 12.2209 27.548 12.4929 27.548C12.7809 27.548 12.9969 27.54 13.1409 27.524C13.2929 27.508 13.3689 27.44 13.3689 27.32C13.3689 27.184 13.2369 27.08 12.9729 27.008C12.7089 26.936 12.3769 26.832 11.9769 26.696C11.4569 26.512 11.0689 26.296 10.8129 26.048C10.5569 25.8 10.4289 25.44 10.4289 24.968C10.4289 24.4 10.6529 23.964 11.1009 23.66C11.5489 23.348 12.2529 23.192 13.2129 23.192C13.5809 23.192 13.9609 23.22 14.3529 23.276C14.7449 23.332 15.0529 23.396 15.2769 23.468V25.052C15.0369 24.948 14.7729 24.872 14.4849 24.824C14.2049 24.776 13.9489 24.752 13.7169 24.752C13.4609 24.752 13.2329 24.764 13.0329 24.788C12.8329 24.812 12.7329 24.88 12.7329 24.992C12.7329 25.12 12.8449 25.212 13.0689 25.268C13.3009 25.324 13.6089 25.412 13.9929 25.532C14.4249 25.66 14.7609 25.8 15.0009 25.952C15.2489 26.104 15.4209 26.288 15.5169 26.504C15.6209 26.72 15.6729 26.988 15.6729 27.308C15.6729 27.884 15.4369 28.332 14.9649 28.652C14.5009 28.964 13.8089 29.12 12.8889 29.12ZM19.4488 29.12C18.4168 29.12 17.6008 28.876 17.0008 28.388C16.4008 27.892 16.1008 27.148 16.1008 26.156C16.1008 25.484 16.2408 24.928 16.5208 24.488C16.8008 24.048 17.1928 23.724 17.6968 23.516C18.2008 23.3 18.7888 23.192 19.4608 23.192C19.8848 23.192 20.2648 23.224 20.6008 23.288C20.9368 23.344 21.2568 23.444 21.5608 23.588V25.172C21.0888 24.948 20.5528 24.836 19.9528 24.836C19.4408 24.836 19.0528 24.932 18.7888 25.124C18.5328 25.316 18.4048 25.66 18.4048 26.156C18.4048 26.62 18.5288 26.956 18.7768 27.164C19.0248 27.372 19.4168 27.476 19.9528 27.476C20.2408 27.476 20.5208 27.444 20.7928 27.38C21.0648 27.308 21.3248 27.208 21.5728 27.08V28.736C21.2688 28.872 20.9408 28.968 20.5888 29.024C20.2448 29.088 19.8648 29.12 19.4488 29.12Z" fill="white"/>
</svg>
