<svg width="62" height="61" viewBox="0 0 62 61" fill="none" xmlns="http://www.w3.org/2000/svg">
<g clip-path="url(#clip0_417_831)">
<circle cx="31.6672" cy="30.6672" r="29.6937" transform="rotate(180 31.6672 30.6672)" fill="white" stroke="#F9F8F8" stroke-width="1.94713"/>
<path d="M32.1317 31.4577C35.8479 31.4577 38.8605 28.4451 38.8605 24.7288C38.8605 21.0126 35.8479 18 32.1317 18C28.4154 18 25.4028 21.0126 25.4028 24.7288C25.4028 28.4451 28.4154 31.4577 32.1317 31.4577Z" fill="#4B76C9"/>
<path d="M41.2169 39.9337C40.2616 35.7573 36.5575 32.6594 32.132 32.6594C27.7065 32.6594 24.0024 35.7573 23.0471 39.9337C22.7937 40.9925 23.593 42.0317 24.7043 42.0317H39.5792C40.671 42.0317 41.4703 40.9925 41.2169 39.9337Z" fill="#4B76C9"/>
</g>
<defs>
<clipPath id="clip0_417_831">
<rect width="62" height="61" fill="white"/>
</clipPath>
</defs>
</svg>
