<svg width="236" height="78" viewBox="0 0 236 78" fill="none" xmlns="http://www.w3.org/2000/svg">
<path d="M9.24 27.4C7.50667 27.4 5.86667 27.2667 4.32 27C2.77333 26.7067 1.45333 26.3067 0.36 25.8V19.6C1.56 20.16 2.89333 20.6133 4.36 20.96C5.82667 21.3067 7.2 21.48 8.48 21.48C9.81333 21.48 10.8133 21.3733 11.48 21.16C12.1733 20.92 12.52 20.4 12.52 19.6C12.52 19.04 12.32 18.6 11.92 18.28C11.5467 17.96 10.9467 17.6667 10.12 17.4C9.32 17.1333 8.26667 16.8 6.96 16.4C5.22667 15.84 3.85333 15.2267 2.84 14.56C1.82667 13.8933 1.09333 13.08 0.64 12.12C0.213333 11.16 1.49012e-08 9.98667 1.49012e-08 8.6C1.49012e-08 6.06667 0.893333 4.14667 2.68 2.84C4.49333 1.50667 7.17333 0.839998 10.72 0.839998C12.1333 0.839998 13.5867 0.959998 15.08 1.2C16.6 1.44 17.8267 1.70667 18.76 2V8.24C17.5067 7.73333 16.3067 7.37333 15.16 7.16C14.0133 6.94667 12.9333 6.84 11.92 6.84C10.7467 6.84 9.74667 6.93333 8.92 7.12C8.09333 7.30667 7.68 7.78667 7.68 8.56C7.68 9.22667 8.02667 9.72 8.72 10.04C9.44 10.3333 10.7067 10.72 12.52 11.2C14.6267 11.76 16.2267 12.44 17.32 13.24C18.44 14.04 19.2 14.9733 19.6 16.04C20 17.08 20.2 18.2667 20.2 19.6C20.2 21.9467 19.2933 23.84 17.48 25.28C15.6667 26.6933 12.92 27.4 9.24 27.4ZM14.36 77.4C9.69333 77.4 6.13333 76.2533 3.68 73.96C1.22667 71.6667 1.49012e-08 68.4267 1.49012e-08 64.24C1.49012e-08 59.92 1.2 56.6133 3.6 54.32C6 52 9.57333 50.84 14.32 50.84C15.92 50.84 17.3467 50.96 18.6 51.2C19.8533 51.44 21.0533 51.7733 22.2 52.2V58.76C19.9067 57.7467 17.4533 57.24 14.84 57.24C12.4133 57.24 10.6133 57.8 9.44 58.92C8.26667 60.0133 7.68 61.7867 7.68 64.24C7.68 66.64 8.29333 68.3733 9.52 69.44C10.7733 70.48 12.5733 71 14.92 71C16.2 71 17.44 70.88 18.64 70.64C19.8667 70.4 21.08 70.0267 22.28 69.52V76.12C21.1333 76.52 19.92 76.8267 18.64 77.04C17.3867 77.28 15.96 77.4 14.36 77.4Z" fill="#002D63"/>
<path d="M36.9875 27.4C34.5875 27.4 32.4675 27.0133 30.6275 26.24C28.8142 25.44 27.3875 24.28 26.3475 22.76C25.3075 21.2133 24.7875 19.32 24.7875 17.08V1.24H32.3075V16.28C32.3075 19.4267 33.8675 21 36.9875 21C38.4808 21 39.6275 20.6133 40.4275 19.84C41.2275 19.0667 41.6275 17.88 41.6275 16.28V1.24H49.1475V17.08C49.1475 19.32 48.6275 21.2133 47.5875 22.76C46.5742 24.28 45.1475 25.44 43.3075 26.24C41.4942 27.0133 39.3875 27.4 36.9875 27.4ZM67.8456 27.4C63.259 27.4 59.7656 26.28 57.3656 24.04C54.9656 21.7733 53.7656 18.5467 53.7656 14.36C53.7656 10.04 55.0056 6.70667 57.4856 4.36C59.9656 2.01333 63.5923 0.839998 68.3656 0.839998C69.9656 0.839998 71.4056 0.933332 72.6856 1.12C73.9923 1.30667 75.219 1.58666 76.3656 1.96V8.4C75.1923 7.94667 73.979 7.64 72.7256 7.48C71.4723 7.32 70.1923 7.24 68.8856 7.24C66.4056 7.24 64.539 7.8 63.2856 8.92C62.059 10.04 61.4456 11.8533 61.4456 14.36C61.4456 16.7067 61.979 18.4 63.0456 19.44C64.139 20.48 65.739 21 67.8456 21C68.539 21 69.1923 20.96 69.8056 20.88C70.419 20.7733 70.9923 20.64 71.5256 20.48V16.72H66.4056V12.08H77.8056V25.04C76.819 25.6533 75.499 26.2 73.8456 26.68C72.219 27.16 70.219 27.4 67.8456 27.4ZM81.8203 27L91.7003 1.24H99.6603L109.54 27H101.7L99.5403 21.52H91.7803L89.6603 27H81.8203ZM92.7803 16.12H98.5403L95.6603 8.56L92.7803 16.12ZM114.347 27V1.24H127.747C129.854 1.24 131.574 1.62667 132.907 2.4C134.267 3.17333 135.28 4.25333 135.947 5.64C136.614 7 136.947 8.58667 136.947 10.4C136.947 12.1333 136.507 13.6667 135.627 15C134.774 16.3067 133.627 17.3067 132.187 18C132.48 18.24 132.734 18.5333 132.947 18.88C133.16 19.2 133.4 19.6533 133.667 20.24L136.627 27H128.787L126.067 20.8C125.854 20.32 125.587 19.9867 125.267 19.8C124.974 19.5867 124.547 19.48 123.987 19.48H121.867V27H114.347ZM121.867 13.72H125.827C126.92 13.72 127.76 13.44 128.347 12.88C128.96 12.2933 129.267 11.4667 129.267 10.4C129.267 8.13333 128.2 7 126.067 7H121.867V13.72ZM27.0969 77V51.24H34.6169V60.84H43.4969V51.24H51.0169V77H43.4969V67.4H34.6169V77H27.0969ZM55.8359 77L65.7159 51.24H73.6759L83.5559 77H75.7159L73.5559 71.52H65.7959L63.6759 77H55.8359ZM66.7959 66.12H72.5559L69.6759 58.56L66.7959 66.12ZM88.3625 77V51.24H95.8825V71.24H107.483V77H88.3625ZM111.495 77V51.24H119.015V71.24H130.615V77H111.495ZM134.628 77V51.24H154.148V57H142.148V61.2H152.668V67.04H142.148V71.24H154.148V77H134.628ZM158.542 77V51.24H164.942L174.662 64.88V51.24H182.182V77H175.742L166.062 63.4V77H158.542ZM201.049 77.4C196.462 77.4 192.969 76.28 190.569 74.04C188.169 71.7733 186.969 68.5467 186.969 64.36C186.969 60.04 188.209 56.7067 190.689 54.36C193.169 52.0133 196.795 50.84 201.569 50.84C203.169 50.84 204.609 50.9333 205.889 51.12C207.195 51.3067 208.422 51.5867 209.569 51.96V58.4C208.395 57.9467 207.182 57.64 205.929 57.48C204.675 57.32 203.395 57.24 202.089 57.24C199.609 57.24 197.742 57.8 196.489 58.92C195.262 60.04 194.649 61.8533 194.649 64.36C194.649 66.7067 195.182 68.4 196.249 69.44C197.342 70.48 198.942 71 201.049 71C201.742 71 202.395 70.96 203.009 70.88C203.622 70.7733 204.195 70.64 204.729 70.48V66.72H199.609V62.08H211.009V75.04C210.022 75.6533 208.702 76.2 207.049 76.68C205.422 77.16 203.422 77.4 201.049 77.4ZM215.823 77V51.24H235.343V57H223.343V61.2H233.863V67.04H223.343V71.24H235.343V77H215.823Z" fill="#4F80C0"/>
</svg>
